<svg id="visual" viewBox="0 0 1800 1200" width="1800" height="1200" xmlns="http://www.w3.org/2000/svg" xmlns:xlink="http://www.w3.org/1999/xlink" version="1.1"><rect x="0" y="0" width="1800" height="1200" fill="#1c1c1d"></rect><path d="M0 783L33.3 784.7C66.7 786.3 133.3 789.7 200 800.3C266.7 811 333.3 829 400 834C466.7 839 533.3 831 600 817.8C666.7 804.7 733.3 786.3 800 786.5C866.7 786.7 933.3 805.3 1000 804.8C1066.7 804.3 1133.3 784.7 1200 776C1266.7 767.3 1333.3 769.7 1400 782.5C1466.7 795.3 1533.3 818.7 1600 817.5C1666.7 816.3 1733.3 790.7 1766.7 777.8L1800 765L1800 1201L1766.7 1201C1733.3 1201 1666.7 1201 1600 1201C1533.3 1201 1466.7 1201 1400 1201C1333.3 1201 1266.7 1201 1200 1201C1133.3 1201 1066.7 1201 1000 1201C933.3 1201 866.7 1201 800 1201C733.3 1201 666.7 1201 600 1201C533.3 1201 466.7 1201 400 1201C333.3 1201 266.7 1201 200 1201C133.3 1201 66.7 1201 33.3 1201L0 1201Z" fill="#d1d5db"></path><path d="M0 874L33.3 877C66.7 880 133.3 886 200 885.3C266.7 884.7 333.3 877.3 400 876.7C466.7 876 533.3 882 600 881C666.7 880 733.3 872 800 877.7C866.7 883.3 933.3 902.7 1000 900C1066.7 897.3 1133.3 872.7 1200 860.8C1266.7 849 1333.3 850 1400 856C1466.7 862 1533.3 873 1600 881.7C1666.7 890.3 1733.3 896.7 1766.7 899.8L1800 903L1800 1201L1766.7 1201C1733.3 1201 1666.7 1201 1600 1201C1533.3 1201 1466.7 1201 1400 1201C1333.3 1201 1266.7 1201 1200 1201C1133.3 1201 1066.7 1201 1000 1201C933.3 1201 866.7 1201 800 1201C733.3 1201 666.7 1201 600 1201C533.3 1201 466.7 1201 400 1201C333.3 1201 266.7 1201 200 1201C133.3 1201 66.7 1201 33.3 1201L0 1201Z" fill="#adb0b4"></path><path d="M0 965L33.3 952.3C66.7 939.7 133.3 914.3 200 907.2C266.7 900 333.3 911 400 918.8C466.7 926.7 533.3 931.3 600 942.5C666.7 953.7 733.3 971.3 800 983.3C866.7 995.3 933.3 1001.7 1000 991.5C1066.7 981.3 1133.3 954.7 1200 948.2C1266.7 941.7 1333.3 955.3 1400 960.2C1466.7 965 1533.3 961 1600 953.8C1666.7 946.7 1733.3 936.3 1766.7 931.2L1800 926L1800 1201L1766.7 1201C1733.3 1201 1666.7 1201 1600 1201C1533.3 1201 1466.7 1201 1400 1201C1333.3 1201 1266.7 1201 1200 1201C1133.3 1201 1066.7 1201 1000 1201C933.3 1201 866.7 1201 800 1201C733.3 1201 666.7 1201 600 1201C533.3 1201 466.7 1201 400 1201C333.3 1201 266.7 1201 200 1201C133.3 1201 66.7 1201 33.3 1201L0 1201Z" fill="#8a8c8f"></path><path d="M0 998L33.3 995.2C66.7 992.3 133.3 986.7 200 997.8C266.7 1009 333.3 1037 400 1042.5C466.7 1048 533.3 1031 600 1026.7C666.7 1022.3 733.3 1030.7 800 1031.2C866.7 1031.7 933.3 1024.3 1000 1018.7C1066.7 1013 1133.3 1009 1200 1003.5C1266.7 998 1333.3 991 1400 988.8C1466.7 986.7 1533.3 989.3 1600 989.7C1666.7 990 1733.3 988 1766.7 987L1800 986L1800 1201L1766.7 1201C1733.3 1201 1666.7 1201 1600 1201C1533.3 1201 1466.7 1201 1400 1201C1333.3 1201 1266.7 1201 1200 1201C1133.3 1201 1066.7 1201 1000 1201C933.3 1201 866.7 1201 800 1201C733.3 1201 666.7 1201 600 1201C533.3 1201 466.7 1201 400 1201C333.3 1201 266.7 1201 200 1201C133.3 1201 66.7 1201 33.3 1201L0 1201Z" fill="#696a6c"></path><path d="M0 1072L33.3 1078.5C66.7 1085 133.3 1098 200 1099.5C266.7 1101 333.3 1091 400 1091.2C466.7 1091.3 533.3 1101.7 600 1098.5C666.7 1095.3 733.3 1078.7 800 1076.2C866.7 1073.7 933.3 1085.3 1000 1092C1066.7 1098.7 1133.3 1100.3 1200 1107C1266.7 1113.7 1333.3 1125.3 1400 1119.7C1466.7 1114 1533.3 1091 1600 1081.8C1666.7 1072.7 1733.3 1077.3 1766.7 1079.7L1800 1082L1800 1201L1766.7 1201C1733.3 1201 1666.7 1201 1600 1201C1533.3 1201 1466.7 1201 1400 1201C1333.3 1201 1266.7 1201 1200 1201C1133.3 1201 1066.7 1201 1000 1201C933.3 1201 866.7 1201 800 1201C733.3 1201 666.7 1201 600 1201C533.3 1201 466.7 1201 400 1201C333.3 1201 266.7 1201 200 1201C133.3 1201 66.7 1201 33.3 1201L0 1201Z" fill="#4a4a4a"></path></svg>